Coordinates
version=1
nRows=65
nColumns=12
inDegrees=yes

Units are S.I. units (second, meters, Newtons, ...)
Angles are in degrees

endheader
time	SC_y	SC_z	SC_x	AC_y	AC_z	AC_x	GH_y	GH_z	GH_yy	EL_x	PS_y
       0.0              -41.16          21.52          44.94          55.01         -8.963          19.06         -174.5          18.35          167.7           62.6          152.3
   0.03284              -41.16          21.52          44.94          55.01         -8.963          19.05         -174.5          18.35          167.7           62.6          152.2
   0.06568              -41.15          21.52          44.93          55.02         -8.963          19.05         -174.5          18.35          167.7          62.61          152.2
   0.09852              -41.15          21.51          44.93          55.02         -8.962          19.04         -174.4          18.35          167.7          62.62          152.2
    0.1314              -41.15          21.51          44.93          55.02         -8.962          19.04         -174.4          18.35          167.7          62.62          152.2
    0.1642              -41.14          21.51          44.93          55.02         -8.961          19.03         -174.4          18.36          167.6          62.63          152.2
     0.197              -41.14           21.5          44.93          55.03         -8.961          19.03         -174.4          18.36          167.6          62.64          152.1
    0.2299              -41.13           21.5          44.92          55.03          -8.96          19.02         -174.4          18.36          167.6          62.65          152.1
    0.2627              -41.13          21.49          44.92          55.03         -8.959          19.02         -174.3          18.36          167.6          62.66          152.1
    0.2956              -41.12          21.49          44.92          55.03         -8.959          19.01         -174.3          18.36          167.6          62.67          152.0
    0.3284              -41.12          21.48          44.91          55.04         -8.958           19.0         -174.3          18.36          167.6          62.68          152.0
    0.3613              -41.11          21.48          44.91          55.04         -8.957           19.0         -174.3          18.36          167.6          62.69          152.0
    0.3941               -41.1          21.47          44.91          55.05         -8.956          18.99         -174.2          18.37          167.5           62.7          151.9
    0.4269               -41.1          21.46           44.9          55.05         -8.956          18.98         -174.2          18.37          167.5          62.72          151.9
    0.4598              -41.09          21.45           44.9          55.05         -8.955          18.97         -174.2          18.37          167.5          62.73          151.8
    0.4926              -41.08          21.45          44.89          55.06         -8.954          18.96         -174.1          18.37          167.5          62.75          151.8
    0.5255              -41.07          21.44          44.89          55.06         -8.952          18.95         -174.1          18.38          167.5          62.77          151.7
    0.5583              -41.06          21.43          44.88          55.07         -8.951          18.94         -174.0          18.38          167.4          62.79          151.7
    0.5911              -41.05          21.42          44.87          55.08          -8.95          18.92         -174.0          18.38          167.4          62.81          151.6
     0.624              -41.04           21.4          44.87          55.08         -8.948          18.91         -173.9          18.39          167.4          62.83          151.5
    0.6568              -41.02          21.39          44.86          55.09         -8.947          18.89         -173.9          18.39          167.3          62.86          151.5
    0.6897              -41.01          21.38          44.85           55.1         -8.945          18.87         -173.8           18.4          167.3          62.88          151.4
    0.7225              -40.99          21.36          44.84          55.11         -8.943          18.85         -173.7           18.4          167.3          62.91          151.3
    0.7553              -40.97          21.34          44.83          55.12         -8.941          18.83         -173.7          18.41          167.2          62.95          151.2
    0.7882              -40.95          21.33          44.82          55.13         -8.938          18.81         -173.6          18.41          167.2          62.99          151.1
     0.821              -40.93           21.3          44.81          55.14         -8.935          18.78         -173.5          18.42          167.1          63.03          150.9
    0.8539              -40.91          21.28          44.79          55.16         -8.932          18.75         -173.4          18.43          167.0          63.08          150.8
    0.8867              -40.88          21.25          44.77          55.17         -8.929          18.72         -173.2          18.44          167.0          63.13          150.6
    0.9195              -40.85          21.22          44.76          55.19         -8.925          18.68         -173.1          18.45          166.9          63.19          150.4
    0.9524              -40.81          21.19          44.73          55.21         -8.921          18.64         -172.9          18.46          166.8          63.26          150.2
    0.9852              -40.77          21.15          44.71          55.23         -8.916          18.59         -172.7          18.47          166.7          63.34          150.0
     1.018              -40.72           21.1          44.68          55.26          -8.91          18.53         -172.5          18.48          166.5          63.43          149.7
     1.051              -40.67          21.05          44.65          55.29         -8.903          18.47         -172.3           18.5          166.4          63.53          149.4
     1.084               -40.6          20.99          44.61          55.33         -8.895          18.39         -172.0          18.52          166.2          63.65          149.0
     1.117              -40.53          20.91          44.57          55.37         -8.886           18.3         -171.7          18.54          166.0          63.79          148.6
     1.149              -40.44          20.83          44.52          55.42         -8.875           18.2         -171.3          18.57          165.8          63.96          148.1
     1.182              -40.34          20.73          44.46          55.48         -8.863          18.07         -170.8           18.6          165.5          64.16          147.5
     1.215              -40.21          20.61          44.39          55.55         -8.847          17.93         -170.2          18.64          165.2          64.39          146.7
     1.248              -40.06          20.46           44.3          55.63         -8.829          17.75         -169.6          18.68          164.8          64.68          145.9
     1.281              -39.88          20.28          44.19          55.74         -8.806          17.53         -168.7          18.74          164.3          65.03          144.8
     1.314              -39.65          20.06          44.06          55.87         -8.778          17.25         -167.7          18.81          163.8          65.46          143.5
     1.346              -39.37          19.79          43.89          56.03         -8.743          16.92         -166.4           18.9          163.0           66.0          141.8
     1.379              -39.01          19.44          43.69          56.23         -8.699          16.49         -164.8          19.01          162.1          66.68          139.7
     1.412              -38.56           19.0          43.42          56.49         -8.644          15.95         -162.8          19.14          160.9          67.54          137.1
     1.445              -37.98          18.44          43.08          56.82         -8.572          15.25         -160.2          19.32          159.4          68.65          133.7
     1.478              -37.24          17.71          42.65          57.24         -8.481          14.36         -156.8          19.55          157.4          70.07          129.3
     1.511              -36.29          16.79          42.09          57.78         -8.364          13.23         -152.5          19.84          155.0          71.88          123.8
     1.544              -35.09          15.63           41.4          58.46         -8.217           11.8         -147.2           20.2          151.8          74.15          116.8
     1.576              -33.63          14.21          40.55          59.28         -8.037          10.06         -140.6          20.65          148.0          76.93          108.3
     1.609              -31.94          12.57          39.56          60.24          -7.83          8.036         -133.0          21.17          143.6          80.14          98.37
     1.642              -30.12           10.8          38.49          61.28         -7.605          5.849         -124.8          21.72          138.8          83.63          87.68
     1.675              -28.29          9.019          37.43          62.32          -7.38          3.663         -116.5          22.28          134.0          87.11          76.99
     1.708               -26.6          7.378          36.44          63.28         -7.172          1.643         -108.9           22.8          129.6          90.32          67.11
     1.741              -25.14          5.963          35.59           64.1         -6.992       -0.09888         -102.4          23.24          125.8           93.1          58.59
     1.773              -23.95          4.801          34.89          64.78         -6.845         -1.529         -96.97          23.61          122.7          95.37           51.6
     1.806               -23.0          3.877          34.34          65.32         -6.728         -2.666         -92.68           23.9          120.2          97.19          46.04
     1.839              -22.25          3.154           33.9          65.74         -6.637         -3.556         -89.33          24.13          118.3           98.6          41.68
     1.872              -21.67           2.59          33.57          66.07         -6.565         -4.249         -86.72           24.3          116.7          99.71          38.29
     1.905              -21.22           2.15           33.3          66.33          -6.51         -4.791         -84.68          24.44          115.6          100.6          35.64
     1.938              -20.86          1.804          33.09          66.53         -6.466         -5.218         -83.07          24.55          114.6          101.2          33.56
      1.97              -20.58          1.529          32.93          66.69         -6.431         -5.556          -81.8          24.64          113.9          101.8           31.9
     2.003              -20.35          1.308           32.8          66.82         -6.403         -5.827         -80.78          24.71          113.3          102.2          30.57
     2.036              -20.17           1.13          32.69          66.92          -6.38         -6.047         -79.95          24.76          112.8          102.6           29.5
     2.069              -20.02         0.9835           32.6          67.01         -6.362         -6.227         -79.27          24.81          112.4          102.9          28.62
     2.102              -19.89         0.8627          32.53          67.08         -6.347         -6.376         -78.71          24.85          112.1          103.1          27.89
